<svg width="512" height="512" viewBox="0 0 512 512" fill="none" xmlns="http://www.w3.org/2000/svg" xmlns:xlink="http://www.w3.org/1999/xlink" class=""><rect id="«r39»" width="512" height="512" x="0" y="0" rx="400" fill="#0a0a0a" stroke="#FFFFFF" stroke-width="0" stroke-opacity="100%" paint-order="stroke"></rect><clipPath id="clip"><use xlink:href="#«r39»"></use></clipPath><defs><linearGradient id="«r3a»" gradientUnits="userSpaceOnUse" gradientTransform="rotate(180)" style="transform-origin: center center;"><stop stop-color="#0a0a0a"></stop><stop offset="1" stop-color="#596AA1"></stop></linearGradient><radialGradient id="«r3b»" cx="0" cy="0" r="1" gradientUnits="userSpaceOnUse" gradientTransform="translate(256) rotate(90) scale(512)"><stop stop-color="white"></stop><stop offset="1" stop-color="white" stop-opacity="0"></stop></radialGradient></defs><svg xmlns="http://www.w3.org/2000/svg" width="352" height="352" viewBox="0 0 24 24" fill="none" stroke="currentColor" stroke-width="2" stroke-linecap="round" stroke-linejoin="round" class="lucide lucide-brain-icon lucide-brain" x="80" y="80" alignment-baseline="middle" style="color: rgb(255, 255, 255);"><path d="M12 5a3 3 0 1 0-5.997.125 4 4 0 0 0-2.526 5.77 4 4 0 0 0 .556 6.588A4 4 0 1 0 12 18Z"></path><path d="M12 5a3 3 0 1 1 5.997.125 4 4 0 0 1 2.526 5.77 4 4 0 0 1-.556 6.588A4 4 0 1 1 12 18Z"></path><path d="M15 13a4.5 4.5 0 0 1-3-4 4.5 4.5 0 0 1-3 4"></path><path d="M17.599 6.5a3 3 0 0 0 .399-1.375"></path><path d="M6.003 5.125A3 3 0 0 0 6.401 6.5"></path><path d="M3.477 10.896a4 4 0 0 1 .585-.396"></path><path d="M19.938 10.5a4 4 0 0 1 .585.396"></path><path d="M6 18a4 4 0 0 1-1.967-.516"></path><path d="M19.967 17.484A4 4 0 0 1 18 18"></path></svg></svg>